<svg width="375" height="289" viewBox="0 0 375 289" fill="none" xmlns="http://www.w3.org/2000/svg">
<g filter="url(#filter0_d_319_760)">
<path d="M341.075 254.001H34.0429C29.6834 254.001 26.1183 250.436 26.1183 246.076V48.1542C26.1183 43.7948 29.6834 40.2297 34.0429 40.2297H341.075C345.435 40.2297 349 43.7948 349 48.1542V246.076C349 250.436 345.435 254.001 341.075 254.001Z" fill="url(#paint0_linear_319_760)"/>
<path d="M336.41 74.1339H38.4743V241.789H336.41V74.1339Z" fill="#E8EBEE"/>
<path d="M348.886 60.9215V45.2304C348.886 42.3544 346.532 40 343.656 40H31.2304C28.3544 40 26 42.3544 26 45.2304V60.9215H348.886Z" fill="#F3F4FA"/>
<path d="M40.125 55.8778C42.871 55.8778 45.097 53.6518 45.097 50.9058C45.097 48.1599 42.871 45.9338 40.125 45.9338C37.3791 45.9338 35.153 48.1599 35.153 50.9058C35.153 53.6518 37.3791 55.8778 40.125 55.8778Z" fill="#2B3081"/>
<path d="M55.3763 55.8778C58.1222 55.8778 60.3482 53.6518 60.3482 50.9058C60.3482 48.1599 58.1222 45.9338 55.3763 45.9338C52.6303 45.9338 50.4043 48.1599 50.4043 50.9058C50.4043 53.6518 52.6303 55.8778 55.3763 55.8778Z" fill="#EFB840"/>
<path d="M69.8425 55.8778C72.5885 55.8778 74.8145 53.6518 74.8145 50.9058C74.8145 48.1599 72.5885 45.9338 69.8425 45.9338C67.0966 45.9338 64.8705 48.1599 64.8705 50.9058C64.8705 53.6518 67.0966 55.8778 69.8425 55.8778Z" fill="#5ECABF"/>
</g>
<g opacity="0.6">
<path d="M72.9647 81.4787L65.3343 95.2617L67.7142 96.4679L75.3446 82.6849L72.9647 81.4787Z" fill="#6467A1"/>
<path d="M62.8931 84.1925L60.887 82.2686L55.8946 87.0454L53.8885 88.9693L55.8946 90.8888L60.887 95.6656L62.8931 93.7461L57.9007 88.9693L62.8931 84.1925Z" fill="#6467A1"/>
<path d="M78.1082 84.1925L80.1143 82.2686L85.1067 87.0454L87.1128 88.9693L85.1067 90.8888L80.1143 95.6656L78.1082 93.7461L83.1006 88.9693L78.1082 84.1925Z" fill="#6467A1"/>
<path d="M325 225H283V230H325V225Z" fill="#ADDBD6"/>
<path d="M273.26 214H245V219.225H273.26V214Z" fill="#A293D3"/>
<path d="M216.433 230H140.318V235.225H216.433V230Z" fill="#AEC3FA"/>
<path d="M85.8719 273.022H53.3365V278.247H85.8719V273.022Z" fill="white"/>
<path d="M150 276H118V281H150V276Z" fill="#F0D6A6"/>
<path d="M96.4338 263.886H68.174V269.111H96.4338V263.886Z" fill="#A293D3"/>
<path d="M140.321 230H95.781V235.225H140.321V230Z" fill="#A293D3"/>
</g>
<g opacity="0.2" filter="url(#filter1_f_319_760)">
<path d="M357.195 38.488L359.875 35.0055L357.919 32.484L353.881 34.2172C353.247 33.588 352.574 33.0003 351.865 32.454L353.033 28.2201L350.27 26.6229L347.186 29.7459C346.285 29.3702 345.352 29.0545 344.386 28.8055L343.826 24.3987L340.657 24L339.023 28.1302C338.12 28.1325 337.226 28.1948 336.348 28.31L334.184 24.4909L331.1 25.3137L331.128 29.7044C330.215 30.0801 329.332 30.5203 328.487 31.0181L325.004 28.3377L322.483 30.2944L324.216 34.3325C323.587 34.9663 322.999 35.6393 322.453 36.3492L318.22 35.1806L316.623 37.9441L319.745 41.0279C319.37 41.9291 319.054 42.8626 318.805 43.8283L314.399 44.3884L314 47.5552L318.13 49.1893C318.132 50.0928 318.194 50.987 318.31 51.8652L314.491 54.0294L315.314 57.1132L319.704 57.0856C320.08 57.9983 320.52 58.881 321.018 59.7269L318.337 63.2094L320.294 65.7309L324.332 63.9977C324.965 64.6269 325.638 65.2146 326.348 65.7609L325.18 69.9948L327.943 71.592L331.026 68.469C331.927 68.8447 332.861 69.1605 333.826 69.4094L334.386 73.8162L337.553 74.2149L339.187 70.0847C340.09 70.0824 340.985 70.0202 341.863 69.9049L344.027 73.724L347.11 72.9012L347.083 68.5105C347.995 68.1348 348.878 67.6946 349.724 67.1968L353.206 69.8773L355.727 67.9205L353.994 63.8824C354.623 63.2486 355.211 62.5756 355.757 61.8657L359.991 63.0343L361.588 60.2708L358.47 57.1893C358.845 56.2881 359.161 55.3546 359.41 54.3889L363.816 53.8289L364.215 50.662L360.085 49.0279C360.083 48.1245 360.021 47.2302 359.905 46.3521L363.724 44.1878L362.901 41.104L358.511 41.1317C358.133 40.2166 357.693 39.3339 357.195 38.488ZM355.116 51.1253C354.003 59.9689 345.933 66.2357 337.092 65.1224C328.249 64.0092 321.983 55.9378 323.096 47.0965C324.209 38.253 332.28 31.9862 341.121 33.0994C349.963 34.2126 356.229 42.2841 355.116 51.1253Z" fill="black"/>
</g>
<path d="M357.484 38.2155L360.056 34.873L358.178 32.4529L354.303 34.1164C353.694 33.5125 353.048 32.9485 352.367 32.4242L353.489 28.3605L350.836 26.8275L347.876 29.825C347.012 29.4644 346.116 29.1613 345.189 28.9224L344.651 24.6929L341.61 24.3102L340.041 28.2743C339.174 28.2765 338.316 28.3362 337.473 28.4468L335.396 24.7813L332.436 25.5711L332.462 29.7851C331.586 30.1457 330.739 30.5682 329.927 31.046L326.585 28.4734L324.165 30.3514L325.828 34.2271C325.224 34.8354 324.66 35.4813 324.136 36.1627L320.072 35.0411L318.539 37.6934L321.537 40.6532C321.176 41.5182 320.873 42.4141 320.634 43.3409L316.405 43.8785L316.022 46.9179L319.986 48.4863C319.988 49.3535 320.048 50.2118 320.159 51.0546L316.493 53.1317L317.283 56.0916L321.497 56.065C321.858 56.941 322.28 57.7882 322.758 58.6001L320.185 61.9426L322.063 64.3626L325.939 62.6991C326.547 63.303 327.193 63.8671 327.875 64.3914L326.753 68.455L329.405 69.988L332.365 66.9906C333.23 67.3512 334.126 67.6542 335.053 67.8932L335.59 72.1227L338.63 72.5054L340.198 68.5413C341.065 68.5391 341.924 68.4794 342.766 68.3688L344.844 72.0342L347.803 71.2445L347.777 67.0304C348.653 66.6699 349.5 66.2473 350.312 65.7695L353.654 68.3422L356.075 66.4641L354.411 62.5885C355.015 61.9802 355.579 61.3343 356.103 60.6529L360.167 61.7745L361.7 59.1221L358.707 56.1645C359.068 55.2996 359.371 54.4037 359.609 53.4768L363.839 52.9393L364.222 49.8999L360.258 48.3315C360.255 47.4643 360.196 46.606 360.085 45.7632L363.751 43.686L362.961 40.7262L358.747 40.7528C358.384 39.8746 357.961 39.0273 357.484 38.2155ZM355.488 50.3445C354.42 58.8324 346.673 64.8471 338.187 63.7786C329.7 62.7102 323.685 54.9634 324.753 46.4777C325.822 37.9899 333.569 31.9751 342.054 33.0436C350.542 34.112 356.557 41.8588 355.488 50.3445Z" fill="#FAD590"/>
<path fill-rule="evenodd" clip-rule="evenodd" d="M360.056 34.873L357.484 38.2155C357.961 39.0273 358.384 39.8746 358.747 40.7528L362.961 40.7262L363.751 43.686L360.085 45.7632C360.196 46.606 360.255 47.4643 360.258 48.3315L364.222 49.8999L363.839 52.9393L359.609 53.4768C359.371 54.4037 359.068 55.2996 358.707 56.1645L361.7 59.1221L360.167 61.7745L356.103 60.6529C355.579 61.3343 355.015 61.9802 354.411 62.5885L356.075 66.4641L353.654 68.3422L350.312 65.7695C349.5 66.2473 348.653 66.6699 347.777 67.0304L347.803 71.2445L344.844 72.0342L342.766 68.3688C341.924 68.4794 341.065 68.5391 340.198 68.5413L338.63 72.5054L335.59 72.1227L335.053 67.8932C334.126 67.6542 333.23 67.3512 332.365 66.9906L329.405 69.988L326.753 68.455L327.875 64.3914C327.193 63.8671 326.547 63.303 325.939 62.6991C327.327 62.5946 330.539 62.2633 332.283 61.7745C334.042 62.8074 336.035 63.5077 338.187 63.7786C346.673 64.8471 354.42 58.8324 355.488 50.3445C355.991 46.3557 354.928 42.5301 352.779 39.4848C353.451 37.892 354.075 35.2423 354.303 34.1164L358.178 32.4529L360.056 34.873Z" fill="#EDB347"/>
<path d="M357.578 48.3332C357.578 57.9848 349.754 65.8089 340.102 65.8089C330.451 65.8089 322.626 57.9848 322.626 48.3332C322.626 38.6817 330.451 30.8575 340.102 30.8575C349.754 30.8575 357.578 38.6817 357.578 48.3332ZM325.742 48.3332C325.742 56.264 332.171 62.6932 340.102 62.6932C348.033 62.6932 354.462 56.264 354.462 48.3332C354.462 40.4024 348.033 33.9733 340.102 33.9733C332.171 33.9733 325.742 40.4024 325.742 48.3332Z" fill="#BD903B"/>
<circle cx="339.962" cy="48.0041" r="10.5621" fill="#5ECABF"/>
<g opacity="0.5" filter="url(#filter2_i_319_760)">
<path d="M344.362 45.2517C345.188 45.2517 345.858 44.598 345.858 43.7917C345.858 42.9854 345.188 42.3318 344.362 42.3318C343.535 42.3318 342.866 42.9854 342.866 43.7917C342.866 44.598 343.535 45.2517 344.362 45.2517Z" fill="#0D806C"/>
<path d="M343.971 54.1066C344.095 54.1598 344.229 54.1873 344.364 54.1873C344.5 54.1873 344.634 54.1598 344.758 54.1066C344.926 54.0347 345.061 53.9059 345.139 53.744L345.173 53.6772L347.96 47.1505C347.96 47.1505 348.542 45.8432 347.124 46.1963C347.124 46.1963 344.269 47.6276 341.521 46.1581L341.414 46.1104C341.194 46.0531 340.499 45.9291 340.675 46.8404C340.681 46.8749 340.69 46.9086 340.705 46.9406L343.55 53.6724C343.576 53.7253 343.605 53.7763 343.638 53.8251C343.709 53.9562 343.828 54.0567 343.971 54.1066V54.1066Z" fill="#0D806C"/>
<path d="M335.781 45.2517C336.608 45.2517 337.277 44.598 337.277 43.7917C337.277 42.9854 336.608 42.3318 335.781 42.3318C334.955 42.3318 334.285 42.9854 334.285 43.7917C334.285 44.598 334.955 45.2517 335.781 45.2517Z" fill="#0D806C"/>
<path d="M336.138 46.1434C336.014 46.0902 335.88 46.0627 335.745 46.0627C335.609 46.0627 335.475 46.0902 335.351 46.1434C335.183 46.2118 335.047 46.3395 334.97 46.5012L334.936 46.568L332.149 53.1138C332.149 53.1138 331.567 54.4211 332.985 54.068C332.985 54.068 335.84 52.6367 338.588 54.1062C338.621 54.1268 338.657 54.1429 338.695 54.1539C338.915 54.2111 339.61 54.3352 339.434 53.4239C339.429 53.3908 339.419 53.3586 339.404 53.3285L336.559 46.5776C336.533 46.5247 336.504 46.4737 336.471 46.4249C336.399 46.2949 336.28 46.1949 336.138 46.1434Z" fill="#0D806C"/>
</g>
<path d="M77.3337 182.16V185.352H72.1737V198H68.0457V185.352H62.8617V182.16H77.3337ZM83.0348 198.24C81.7068 198.24 80.5548 197.992 79.5788 197.496C78.6188 197 77.8748 196.288 77.3468 195.36C76.8188 194.432 76.5548 193.312 76.5548 192C76.5548 190.688 76.8188 189.568 77.3468 188.64C77.8748 187.712 78.6108 187 79.5548 186.504C80.5148 186.008 81.6108 185.76 82.8428 185.76C84.1068 185.76 85.1788 186.008 86.0588 186.504C86.9548 186.984 87.6348 187.656 88.0988 188.52C88.5628 189.368 88.7948 190.344 88.7948 191.448C88.7948 191.736 88.7868 192.024 88.7708 192.312C88.7548 192.6 88.7308 192.84 88.6988 193.032H79.1948V190.848H86.8988L84.9548 191.592C84.9548 190.632 84.7788 189.896 84.4268 189.384C84.0908 188.872 83.5628 188.616 82.8428 188.616C82.3308 188.616 81.8908 188.736 81.5228 188.976C81.1708 189.216 80.8988 189.592 80.7068 190.104C80.5308 190.616 80.4428 191.272 80.4428 192.072C80.4428 192.856 80.5468 193.496 80.7548 193.992C80.9628 194.472 81.2588 194.824 81.6428 195.048C82.0268 195.256 82.4908 195.36 83.0348 195.36C83.6428 195.36 84.1228 195.24 84.4748 195C84.8428 194.76 85.1148 194.424 85.2908 193.992L88.5548 195.072C88.3308 195.76 87.9388 196.344 87.3788 196.824C86.8348 197.288 86.1788 197.64 85.4108 197.88C84.6588 198.12 83.8668 198.24 83.0348 198.24ZM96.7653 185.76C97.9813 185.76 98.9893 185.936 99.7893 186.288C100.605 186.624 101.237 187.08 101.685 187.656C102.149 188.216 102.437 188.824 102.549 189.48L98.7813 190.728C98.6693 190.04 98.4613 189.528 98.1573 189.192C97.8693 188.84 97.4453 188.664 96.8853 188.664C96.3733 188.664 95.9413 188.784 95.5893 189.024C95.2533 189.248 94.9973 189.616 94.8213 190.128C94.6453 190.624 94.5573 191.264 94.5573 192.048C94.5573 192.832 94.6533 193.472 94.8453 193.968C95.0373 194.448 95.3093 194.8 95.6613 195.024C96.0133 195.232 96.4293 195.336 96.9093 195.336C97.3093 195.336 97.6373 195.264 97.8933 195.12C98.1653 194.96 98.3893 194.736 98.5653 194.448C98.7413 194.16 98.8533 193.808 98.9013 193.392L102.573 194.568C102.461 195.272 102.157 195.904 101.661 196.464C101.181 197.008 100.541 197.44 99.7413 197.76C98.9413 198.08 98.0053 198.24 96.9333 198.24C95.6213 198.24 94.4773 198 93.5013 197.52C92.5253 197.024 91.7733 196.312 91.2453 195.384C90.7173 194.44 90.4533 193.312 90.4533 192C90.4533 190.688 90.7173 189.568 91.2453 188.64C91.7733 187.696 92.5093 186.984 93.4533 186.504C94.4133 186.008 95.5173 185.76 96.7653 185.76ZM104.694 198V180.912H108.774V188.184C109.126 187.384 109.63 186.784 110.286 186.384C110.942 185.968 111.702 185.76 112.566 185.76C113.398 185.76 114.118 185.92 114.726 186.24C115.35 186.56 115.838 187.032 116.19 187.656C116.542 188.28 116.718 189.064 116.718 190.008V198H112.638V191.136C112.638 190.272 112.478 189.68 112.158 189.36C111.854 189.024 111.446 188.856 110.934 188.856C110.55 188.856 110.19 188.952 109.854 189.144C109.518 189.336 109.254 189.64 109.062 190.056C108.87 190.472 108.774 191.016 108.774 191.688V198H104.694ZM119.577 198V186H123.225L123.441 190.128L122.985 189.672C123.145 188.808 123.425 188.088 123.825 187.512C124.241 186.936 124.753 186.504 125.361 186.216C125.985 185.912 126.681 185.76 127.449 185.76C128.281 185.76 129.001 185.92 129.609 186.24C130.233 186.56 130.721 187.032 131.073 187.656C131.425 188.28 131.601 189.064 131.601 190.008V198H127.521V191.088C127.521 190.256 127.361 189.68 127.041 189.36C126.721 189.04 126.313 188.88 125.817 188.88C125.433 188.88 125.073 188.976 124.737 189.168C124.401 189.344 124.137 189.632 123.945 190.032C123.753 190.432 123.657 190.968 123.657 191.64V198H119.577ZM136.5 184.608C135.668 184.608 135.06 184.456 134.676 184.152C134.308 183.832 134.124 183.336 134.124 182.664C134.124 181.976 134.308 181.48 134.676 181.176C135.06 180.856 135.668 180.696 136.5 180.696C137.316 180.696 137.916 180.856 138.3 181.176C138.684 181.48 138.876 181.976 138.876 182.664C138.876 183.336 138.684 183.832 138.3 184.152C137.916 184.456 137.316 184.608 136.5 184.608ZM138.54 186V198H134.46V186H138.54ZM147.132 185.76C148.348 185.76 149.356 185.936 150.156 186.288C150.972 186.624 151.604 187.08 152.052 187.656C152.516 188.216 152.804 188.824 152.916 189.48L149.148 190.728C149.036 190.04 148.828 189.528 148.524 189.192C148.236 188.84 147.812 188.664 147.252 188.664C146.74 188.664 146.308 188.784 145.956 189.024C145.62 189.248 145.364 189.616 145.188 190.128C145.012 190.624 144.924 191.264 144.924 192.048C144.924 192.832 145.02 193.472 145.212 193.968C145.404 194.448 145.676 194.8 146.028 195.024C146.38 195.232 146.796 195.336 147.276 195.336C147.676 195.336 148.004 195.264 148.26 195.12C148.532 194.96 148.756 194.736 148.932 194.448C149.108 194.16 149.22 193.808 149.268 193.392L152.94 194.568C152.828 195.272 152.524 195.904 152.028 196.464C151.548 197.008 150.908 197.44 150.108 197.76C149.308 198.08 148.372 198.24 147.3 198.24C145.988 198.24 144.844 198 143.868 197.52C142.892 197.024 142.14 196.312 141.612 195.384C141.084 194.44 140.82 193.312 140.82 192C140.82 190.688 141.084 189.568 141.612 188.64C142.14 187.696 142.876 186.984 143.82 186.504C144.78 186.008 145.884 185.76 147.132 185.76ZM161.758 190.392C161.758 189.832 161.598 189.392 161.278 189.072C160.974 188.736 160.558 188.568 160.03 188.568C159.502 188.568 159.046 188.704 158.662 188.976C158.294 189.232 158.038 189.696 157.894 190.368L154.438 189.552C154.662 188.4 155.254 187.48 156.214 186.792C157.174 186.104 158.526 185.76 160.27 185.76C161.438 185.76 162.43 185.936 163.246 186.288C164.078 186.624 164.71 187.136 165.142 187.824C165.59 188.496 165.814 189.328 165.814 190.32V194.712C165.814 195.336 166.094 195.648 166.654 195.648C166.942 195.648 167.174 195.616 167.35 195.552L167.11 197.88C166.63 198.104 166.046 198.216 165.358 198.216C164.734 198.216 164.182 198.12 163.702 197.928C163.222 197.72 162.846 197.416 162.574 197.016C162.302 196.6 162.166 196.08 162.166 195.456V195.312L162.622 195.144C162.622 195.832 162.414 196.408 161.998 196.872C161.598 197.336 161.07 197.68 160.414 197.904C159.774 198.128 159.102 198.24 158.398 198.24C157.582 198.24 156.87 198.112 156.262 197.856C155.654 197.6 155.182 197.232 154.846 196.752C154.526 196.256 154.366 195.648 154.366 194.928C154.366 194.064 154.622 193.352 155.134 192.792C155.662 192.216 156.486 191.816 157.606 191.592L162.142 190.656L162.118 192.816L159.814 193.296C159.334 193.392 158.974 193.536 158.734 193.728C158.51 193.904 158.398 194.176 158.398 194.544C158.398 194.896 158.526 195.16 158.782 195.336C159.038 195.512 159.342 195.6 159.694 195.6C159.966 195.6 160.222 195.56 160.462 195.48C160.718 195.4 160.942 195.28 161.134 195.12C161.326 194.944 161.478 194.728 161.59 194.472C161.702 194.216 161.758 193.912 161.758 193.56V190.392ZM172.992 180.912V193.92C172.992 194.448 173.08 194.824 173.256 195.048C173.432 195.272 173.728 195.384 174.144 195.384C174.384 195.384 174.584 195.368 174.744 195.336C174.904 195.304 175.096 195.256 175.32 195.192L175.056 197.64C174.768 197.816 174.392 197.96 173.928 198.072C173.464 198.184 173.008 198.24 172.56 198.24C171.28 198.24 170.352 197.944 169.776 197.352C169.2 196.76 168.912 195.792 168.912 194.448V180.912H172.992ZM190.359 182.16C192.839 182.16 194.735 182.848 196.047 184.224C197.375 185.6 198.039 187.552 198.039 190.08C198.039 192.608 197.375 194.56 196.047 195.936C194.735 197.312 192.839 198 190.359 198H183.639V182.16H190.359ZM189.951 194.88C191.295 194.88 192.271 194.48 192.879 193.68C193.503 192.864 193.815 191.664 193.815 190.08C193.815 188.496 193.503 187.304 192.879 186.504C192.271 185.688 191.295 185.28 189.951 185.28H187.767V194.88H189.951ZM202.57 184.608C201.738 184.608 201.13 184.456 200.746 184.152C200.378 183.832 200.194 183.336 200.194 182.664C200.194 181.976 200.378 181.48 200.746 181.176C201.13 180.856 201.738 180.696 202.57 180.696C203.386 180.696 203.986 180.856 204.37 181.176C204.754 181.48 204.946 181.976 204.946 182.664C204.946 183.336 204.754 183.832 204.37 184.152C203.986 184.456 203.386 184.608 202.57 184.608ZM204.61 186V198H200.53V186H204.61ZM213.107 180.576C213.763 180.576 214.339 180.648 214.835 180.792C215.331 180.92 215.699 181.072 215.939 181.248L215.531 183.792C215.355 183.68 215.155 183.592 214.931 183.528C214.707 183.464 214.427 183.432 214.091 183.432C213.531 183.432 213.067 183.56 212.699 183.816C212.347 184.072 212.171 184.52 212.171 185.16V186.72L212.411 187.392V198H208.331V184.896C208.331 184.128 208.451 183.472 208.691 182.928C208.947 182.384 209.299 181.936 209.747 181.584C210.195 181.232 210.707 180.976 211.283 180.816C211.859 180.656 212.467 180.576 213.107 180.576ZM215.819 186V188.904H206.411V186H215.819ZM222.755 180.576C223.411 180.576 223.987 180.648 224.483 180.792C224.979 180.92 225.347 181.072 225.587 181.248L225.179 183.792C225.003 183.68 224.803 183.592 224.579 183.528C224.355 183.464 224.075 183.432 223.739 183.432C223.179 183.432 222.715 183.56 222.347 183.816C221.995 184.072 221.819 184.52 221.819 185.16V186.72L222.059 187.392V198H217.979V184.896C217.979 184.128 218.099 183.472 218.339 182.928C218.595 182.384 218.947 181.936 219.395 181.584C219.843 181.232 220.355 180.976 220.931 180.816C221.507 180.656 222.115 180.576 222.755 180.576ZM225.467 186V188.904H216.059V186H225.467ZM229.163 184.608C228.331 184.608 227.723 184.456 227.339 184.152C226.971 183.832 226.787 183.336 226.787 182.664C226.787 181.976 226.971 181.48 227.339 181.176C227.723 180.856 228.331 180.696 229.163 180.696C229.979 180.696 230.579 180.856 230.963 181.176C231.347 181.48 231.539 181.976 231.539 182.664C231.539 183.336 231.347 183.832 230.963 184.152C230.579 184.456 229.979 184.608 229.163 184.608ZM231.203 186V198H227.123V186H231.203ZM239.804 185.76C241.02 185.76 242.028 185.936 242.828 186.288C243.644 186.624 244.276 187.08 244.724 187.656C245.188 188.216 245.476 188.824 245.588 189.48L241.82 190.728C241.708 190.04 241.5 189.528 241.196 189.192C240.908 188.84 240.484 188.664 239.924 188.664C239.412 188.664 238.98 188.784 238.628 189.024C238.292 189.248 238.036 189.616 237.86 190.128C237.684 190.624 237.596 191.264 237.596 192.048C237.596 192.832 237.692 193.472 237.884 193.968C238.076 194.448 238.348 194.8 238.7 195.024C239.052 195.232 239.468 195.336 239.948 195.336C240.348 195.336 240.676 195.264 240.932 195.12C241.204 194.96 241.428 194.736 241.604 194.448C241.78 194.16 241.892 193.808 241.94 193.392L245.612 194.568C245.5 195.272 245.196 195.904 244.7 196.464C244.22 197.008 243.58 197.44 242.78 197.76C241.98 198.08 241.044 198.24 239.972 198.24C238.66 198.24 237.516 198 236.54 197.52C235.564 197.024 234.812 196.312 234.284 195.384C233.756 194.44 233.492 193.312 233.492 192C233.492 190.688 233.756 189.568 234.284 188.64C234.812 187.696 235.548 186.984 236.492 186.504C237.452 186.008 238.556 185.76 239.804 185.76ZM251.79 198.24C250.974 198.24 250.254 198.104 249.63 197.832C249.022 197.544 248.542 197.088 248.19 196.464C247.838 195.84 247.662 195.024 247.662 194.016V186H251.742V193.056C251.742 193.824 251.894 194.36 252.198 194.664C252.502 194.968 252.934 195.12 253.494 195.12C253.782 195.12 254.054 195.072 254.31 194.976C254.566 194.864 254.79 194.704 254.982 194.496C255.174 194.272 255.318 193.992 255.414 193.656C255.526 193.304 255.582 192.896 255.582 192.432V186H259.662V198H256.014L255.894 195.744C255.51 196.592 254.974 197.224 254.286 197.64C253.598 198.04 252.766 198.24 251.79 198.24ZM266.625 180.912V193.92C266.625 194.448 266.713 194.824 266.889 195.048C267.065 195.272 267.361 195.384 267.777 195.384C268.017 195.384 268.217 195.368 268.377 195.336C268.537 195.304 268.729 195.256 268.953 195.192L268.689 197.64C268.401 197.816 268.025 197.96 267.561 198.072C267.097 198.184 266.641 198.24 266.193 198.24C264.913 198.24 263.985 197.944 263.409 197.352C262.833 196.76 262.545 195.792 262.545 194.448V180.912H266.625ZM275.062 182.184V193.728C275.062 194.304 275.198 194.72 275.47 194.976C275.758 195.216 276.15 195.336 276.646 195.336C277.03 195.336 277.358 195.296 277.63 195.216C277.918 195.12 278.174 194.984 278.398 194.808L278.83 197.328C278.43 197.616 277.926 197.84 277.318 198C276.71 198.16 276.086 198.24 275.446 198.24C274.534 198.24 273.742 198.112 273.07 197.856C272.414 197.6 271.902 197.192 271.534 196.632C271.182 196.072 270.998 195.328 270.982 194.4V183.312L275.062 182.184ZM278.638 186V188.904H268.918V186H278.638ZM282.563 184.608C281.731 184.608 281.123 184.456 280.739 184.152C280.371 183.832 280.187 183.336 280.187 182.664C280.187 181.976 280.371 181.48 280.739 181.176C281.123 180.856 281.731 180.696 282.563 180.696C283.379 180.696 283.979 180.856 284.363 181.176C284.747 181.48 284.939 181.976 284.939 182.664C284.939 183.336 284.747 183.832 284.363 184.152C283.979 184.456 283.379 184.608 282.563 184.608ZM284.603 186V198H280.523V186H284.603ZM293.363 198.24C292.035 198.24 290.883 197.992 289.907 197.496C288.947 197 288.203 196.288 287.675 195.36C287.147 194.432 286.883 193.312 286.883 192C286.883 190.688 287.147 189.568 287.675 188.64C288.203 187.712 288.939 187 289.883 186.504C290.843 186.008 291.939 185.76 293.171 185.76C294.435 185.76 295.507 186.008 296.387 186.504C297.283 186.984 297.963 187.656 298.427 188.52C298.891 189.368 299.123 190.344 299.123 191.448C299.123 191.736 299.115 192.024 299.099 192.312C299.083 192.6 299.059 192.84 299.027 193.032H289.523V190.848H297.227L295.283 191.592C295.283 190.632 295.107 189.896 294.755 189.384C294.419 188.872 293.891 188.616 293.171 188.616C292.659 188.616 292.219 188.736 291.851 188.976C291.499 189.216 291.227 189.592 291.035 190.104C290.859 190.616 290.771 191.272 290.771 192.072C290.771 192.856 290.875 193.496 291.083 193.992C291.291 194.472 291.587 194.824 291.971 195.048C292.355 195.256 292.819 195.36 293.363 195.36C293.971 195.36 294.451 195.24 294.803 195C295.171 194.76 295.443 194.424 295.619 193.992L298.883 195.072C298.659 195.76 298.267 196.344 297.707 196.824C297.163 197.288 296.507 197.64 295.739 197.88C294.987 198.12 294.195 198.24 293.363 198.24ZM306.445 198.24C305.245 198.24 304.125 198.048 303.085 197.664C302.061 197.264 301.213 196.696 300.541 195.96L302.461 193.704C302.861 194.216 303.389 194.648 304.045 195C304.717 195.336 305.461 195.504 306.277 195.504C306.773 195.504 307.181 195.432 307.501 195.288C307.821 195.144 307.981 194.92 307.981 194.616C307.981 194.392 307.901 194.216 307.741 194.088C307.581 193.944 307.261 193.824 306.781 193.728L305.101 193.392C303.597 193.088 302.525 192.64 301.885 192.048C301.261 191.44 300.949 190.648 300.949 189.672C300.949 189.016 301.149 188.392 301.549 187.8C301.949 187.192 302.565 186.704 303.397 186.336C304.229 185.952 305.293 185.76 306.589 185.76C307.805 185.76 308.877 185.936 309.805 186.288C310.733 186.64 311.469 187.152 312.013 187.824L310.069 190.032C309.685 189.552 309.189 189.176 308.581 188.904C307.973 188.632 307.365 188.496 306.757 188.496C306.373 188.496 306.045 188.536 305.773 188.616C305.517 188.68 305.325 188.776 305.197 188.904C305.069 189.032 305.005 189.192 305.005 189.384C305.005 189.592 305.101 189.776 305.293 189.936C305.501 190.08 305.877 190.208 306.421 190.32L308.605 190.752C309.837 190.976 310.725 191.384 311.269 191.976C311.813 192.568 312.085 193.28 312.085 194.112C312.085 194.896 311.877 195.6 311.461 196.224C311.045 196.848 310.421 197.344 309.589 197.712C308.757 198.064 307.709 198.24 306.445 198.24Z" fill="#EFB840"/>
<path d="M96.6925 119.16L90.6925 135H88.5085L82.4845 119.16H84.5485L88.5805 130.104L89.5885 133.248L90.5965 130.128L94.6285 119.16H96.6925ZM103.521 135.24C102.385 135.24 101.369 134.992 100.473 134.496C99.5934 134 98.9054 133.288 98.4094 132.36C97.9134 131.416 97.6654 130.296 97.6654 129C97.6654 127.704 97.9134 126.592 98.4094 125.664C98.9054 124.72 99.5854 124 100.449 123.504C101.313 123.008 102.297 122.76 103.401 122.76C104.521 122.76 105.473 123 106.257 123.48C107.057 123.96 107.665 124.616 108.081 125.448C108.497 126.264 108.705 127.184 108.705 128.208C108.705 128.48 108.697 128.728 108.681 128.952C108.665 129.176 108.641 129.376 108.609 129.552H98.9134V127.848H107.769L106.785 128.04C106.785 126.888 106.465 126 105.825 125.376C105.201 124.752 104.377 124.44 103.353 124.44C102.569 124.44 101.889 124.624 101.313 124.992C100.753 125.344 100.313 125.864 99.9934 126.552C99.6894 127.224 99.5374 128.04 99.5374 129C99.5374 129.944 99.6974 130.76 100.017 131.448C100.337 132.136 100.785 132.664 101.361 133.032C101.953 133.384 102.657 133.56 103.473 133.56C104.353 133.56 105.065 133.392 105.609 133.056C106.169 132.72 106.617 132.264 106.953 131.688L108.465 132.576C108.161 133.12 107.769 133.592 107.289 133.992C106.825 134.392 106.273 134.704 105.633 134.928C105.009 135.136 104.305 135.24 103.521 135.24ZM112.357 135V123H113.917L114.181 124.968C114.517 124.232 115.005 123.68 115.645 123.312C116.301 122.944 117.093 122.76 118.021 122.76C118.229 122.76 118.453 122.776 118.693 122.808C118.949 122.84 119.165 122.904 119.341 123L119.005 124.752C118.829 124.688 118.637 124.64 118.429 124.608C118.221 124.576 117.925 124.56 117.541 124.56C117.045 124.56 116.541 124.704 116.029 124.992C115.533 125.28 115.117 125.72 114.781 126.312C114.445 126.888 114.277 127.624 114.277 128.52V135H112.357ZM132.018 123L126.378 137.016C126.074 137.8 125.738 138.416 125.37 138.864C125.018 139.328 124.618 139.656 124.17 139.848C123.738 140.056 123.234 140.16 122.658 140.16C122.114 140.16 121.61 140.08 121.146 139.92C120.698 139.776 120.298 139.576 119.946 139.32L120.474 137.64C120.794 137.928 121.13 138.136 121.482 138.264C121.85 138.408 122.21 138.48 122.562 138.48C122.978 138.48 123.37 138.352 123.738 138.096C124.106 137.84 124.442 137.32 124.746 136.536L125.37 134.976L124.17 132.12L120.354 123H122.538L125.538 130.824L126.282 132.96L127.146 130.584L129.954 123H132.018ZM142.099 135V117.48H144.019V124.8C144.435 124.08 144.987 123.56 145.675 123.24C146.363 122.92 147.115 122.76 147.931 122.76C148.795 122.76 149.579 122.928 150.283 123.264C150.987 123.584 151.547 124.08 151.963 124.752C152.395 125.424 152.611 126.28 152.611 127.32V135H150.691V127.992C150.691 126.664 150.403 125.744 149.827 125.232C149.267 124.704 148.571 124.44 147.739 124.44C147.163 124.44 146.587 124.576 146.011 124.848C145.435 125.12 144.955 125.568 144.571 126.192C144.203 126.8 144.019 127.616 144.019 128.64V135H142.099ZM157.919 120.696C157.487 120.696 157.135 120.568 156.863 120.312C156.607 120.04 156.479 119.688 156.479 119.256C156.479 118.824 156.607 118.48 156.863 118.224C157.135 117.952 157.487 117.816 157.919 117.816C158.351 117.816 158.695 117.952 158.951 118.224C159.223 118.48 159.359 118.824 159.359 119.256C159.359 119.688 159.223 120.04 158.951 120.312C158.695 120.568 158.351 120.696 157.919 120.696ZM158.879 123V135H156.959V123H158.879ZM173.438 120.792L173.87 122.496C173.854 122.496 173.83 122.496 173.798 122.496C173.766 122.496 173.734 122.496 173.702 122.496C172.918 122.496 172.31 122.656 171.878 122.976C171.462 123.28 171.254 123.776 171.254 124.464L170.078 123.864C170.078 123.24 170.222 122.696 170.51 122.232C170.798 121.768 171.19 121.416 171.686 121.176C172.182 120.92 172.726 120.792 173.318 120.792C173.334 120.792 173.35 120.792 173.366 120.792C173.398 120.792 173.422 120.792 173.438 120.792ZM169.79 133.464C170.926 133.464 171.814 133.728 172.454 134.256C173.094 134.768 173.414 135.456 173.414 136.32C173.414 137.104 173.15 137.784 172.622 138.36C172.11 138.936 171.414 139.376 170.534 139.68C169.67 140 168.694 140.16 167.606 140.16C165.718 140.16 164.302 139.84 163.358 139.2C162.43 138.56 161.966 137.792 161.966 136.896C161.966 136.256 162.174 135.68 162.59 135.168C163.022 134.672 163.742 134.392 164.75 134.328L164.582 134.688C164.038 134.544 163.574 134.304 163.19 133.968C162.822 133.616 162.638 133.112 162.638 132.456C162.638 131.8 162.878 131.24 163.358 130.776C163.854 130.296 164.582 130 165.542 129.888L166.814 130.536H166.574C165.79 130.616 165.23 130.816 164.894 131.136C164.574 131.44 164.414 131.776 164.414 132.144C164.414 132.592 164.574 132.928 164.894 133.152C165.23 133.36 165.694 133.464 166.286 133.464H169.79ZM167.582 138.552C168.51 138.552 169.27 138.456 169.862 138.264C170.47 138.072 170.918 137.824 171.206 137.52C171.494 137.216 171.638 136.888 171.638 136.536C171.638 136.104 171.462 135.76 171.11 135.504C170.774 135.248 170.158 135.12 169.262 135.12H165.566C165.054 135.12 164.622 135.248 164.27 135.504C163.918 135.776 163.742 136.144 163.742 136.608C163.742 137.2 164.078 137.672 164.75 138.024C165.438 138.376 166.382 138.552 167.582 138.552ZM167.414 122.76C168.374 122.76 169.222 122.936 169.958 123.288C170.71 123.624 171.294 124.096 171.71 124.704C172.126 125.312 172.334 126.016 172.334 126.816C172.334 127.6 172.126 128.304 171.71 128.928C171.294 129.536 170.71 130.016 169.958 130.368C169.222 130.704 168.374 130.872 167.414 130.872C165.83 130.872 164.614 130.496 163.766 129.744C162.918 128.976 162.494 128 162.494 126.816C162.494 126.016 162.702 125.312 163.118 124.704C163.55 124.096 164.134 123.624 164.87 123.288C165.606 122.936 166.454 122.76 167.414 122.76ZM167.414 124.32C166.582 124.32 165.886 124.552 165.326 125.016C164.766 125.464 164.486 126.064 164.486 126.816C164.486 127.552 164.766 128.152 165.326 128.616C165.886 129.08 166.582 129.312 167.414 129.312C168.246 129.312 168.942 129.08 169.502 128.616C170.062 128.152 170.342 127.552 170.342 126.816C170.342 126.064 170.062 125.464 169.502 125.016C168.942 124.552 168.246 124.32 167.414 124.32ZM176.107 135V117.48H178.027V124.8C178.443 124.08 178.995 123.56 179.683 123.24C180.371 122.92 181.123 122.76 181.939 122.76C182.803 122.76 183.587 122.928 184.291 123.264C184.995 123.584 185.555 124.08 185.971 124.752C186.403 125.424 186.619 126.28 186.619 127.32V135H184.699V127.992C184.699 126.664 184.411 125.744 183.835 125.232C183.275 124.704 182.579 124.44 181.747 124.44C181.171 124.44 180.595 124.576 180.019 124.848C179.443 125.12 178.963 125.568 178.579 126.192C178.211 126.8 178.027 127.616 178.027 128.64V135H176.107ZM203.826 135.24C202.834 135.24 201.922 134.992 201.09 134.496C200.258 134 199.594 133.288 199.098 132.36C198.602 131.416 198.354 130.296 198.354 129C198.354 127.672 198.618 126.544 199.146 125.616C199.674 124.688 200.37 123.984 201.234 123.504C202.098 123.008 203.026 122.76 204.018 122.76C205.01 122.76 205.866 123.016 206.586 123.528C207.322 124.04 207.81 124.72 208.05 125.568L207.81 125.736V117.48H209.73V135H208.05L207.882 132.096L208.146 131.952C208.034 132.656 207.762 133.256 207.33 133.752C206.914 134.232 206.394 134.6 205.77 134.856C205.162 135.112 204.514 135.24 203.826 135.24ZM204.018 133.56C204.786 133.56 205.45 133.368 206.01 132.984C206.586 132.6 207.026 132.056 207.33 131.352C207.65 130.632 207.81 129.792 207.81 128.832C207.81 127.92 207.65 127.136 207.33 126.48C207.026 125.824 206.594 125.32 206.034 124.968C205.49 124.616 204.85 124.44 204.114 124.44C202.898 124.44 201.954 124.856 201.282 125.688C200.61 126.52 200.274 127.624 200.274 129C200.274 130.376 200.602 131.48 201.258 132.312C201.914 133.144 202.834 133.56 204.018 133.56ZM219.209 135.24C218.073 135.24 217.057 134.992 216.161 134.496C215.281 134 214.593 133.288 214.097 132.36C213.601 131.416 213.353 130.296 213.353 129C213.353 127.704 213.601 126.592 214.097 125.664C214.593 124.72 215.273 124 216.137 123.504C217.001 123.008 217.985 122.76 219.089 122.76C220.209 122.76 221.161 123 221.945 123.48C222.745 123.96 223.353 124.616 223.769 125.448C224.185 126.264 224.393 127.184 224.393 128.208C224.393 128.48 224.385 128.728 224.369 128.952C224.353 129.176 224.329 129.376 224.297 129.552H214.601V127.848H223.457L222.473 128.04C222.473 126.888 222.153 126 221.513 125.376C220.889 124.752 220.065 124.44 219.041 124.44C218.257 124.44 217.577 124.624 217.001 124.992C216.441 125.344 216.001 125.864 215.681 126.552C215.377 127.224 215.225 128.04 215.225 129C215.225 129.944 215.385 130.76 215.705 131.448C216.025 132.136 216.473 132.664 217.049 133.032C217.641 133.384 218.345 133.56 219.161 133.56C220.041 133.56 220.753 133.392 221.297 133.056C221.857 132.72 222.305 132.264 222.641 131.688L224.153 132.576C223.849 133.12 223.457 133.592 222.977 133.992C222.513 134.392 221.961 134.704 221.321 134.928C220.697 135.136 219.993 135.24 219.209 135.24ZM228.045 135V123H229.725L229.845 124.872C230.277 124.136 230.837 123.6 231.525 123.264C232.229 122.928 232.949 122.76 233.685 122.76C234.533 122.76 235.333 122.952 236.085 123.336C236.837 123.72 237.413 124.312 237.812 125.112C238.069 124.568 238.429 124.128 238.893 123.792C239.357 123.44 239.861 123.184 240.405 123.024C240.965 122.848 241.493 122.76 241.989 122.76C242.757 122.76 243.485 122.92 244.173 123.24C244.877 123.56 245.453 124.056 245.901 124.728C246.349 125.4 246.573 126.264 246.573 127.32V135H244.653V127.512C244.653 126.424 244.381 125.64 243.837 125.16C243.293 124.68 242.621 124.44 241.821 124.44C241.197 124.44 240.613 124.592 240.069 124.896C239.525 125.2 239.085 125.648 238.749 126.24C238.429 126.832 238.269 127.56 238.269 128.424V135H236.349V127.512C236.349 126.424 236.077 125.64 235.533 125.16C234.989 124.68 234.317 124.44 233.517 124.44C232.989 124.44 232.445 124.584 231.885 124.872C231.341 125.144 230.885 125.584 230.517 126.192C230.149 126.8 229.965 127.6 229.965 128.592V135H228.045ZM257.928 127.248C257.928 126.352 257.688 125.664 257.208 125.184C256.728 124.688 256.048 124.44 255.168 124.44C254.336 124.44 253.632 124.624 253.056 124.992C252.48 125.344 252.056 125.92 251.784 126.72L250.224 125.76C250.544 124.864 251.136 124.144 252 123.6C252.864 123.04 253.936 122.76 255.216 122.76C256.08 122.76 256.864 122.912 257.568 123.216C258.272 123.504 258.824 123.952 259.224 124.56C259.64 125.152 259.848 125.92 259.848 126.864V132.672C259.848 133.248 260.152 133.536 260.76 133.536C261.064 133.536 261.36 133.496 261.648 133.416L261.552 134.928C261.232 135.088 260.816 135.168 260.304 135.168C259.84 135.168 259.424 135.08 259.056 134.904C258.688 134.728 258.4 134.464 258.192 134.112C257.984 133.744 257.88 133.288 257.88 132.744V132.504L258.36 132.576C258.168 133.2 257.84 133.712 257.376 134.112C256.912 134.496 256.392 134.784 255.816 134.976C255.24 135.152 254.672 135.24 254.112 135.24C253.408 135.24 252.752 135.12 252.144 134.88C251.536 134.64 251.048 134.28 250.68 133.8C250.328 133.304 250.152 132.696 250.152 131.976C250.152 131.08 250.448 130.344 251.04 129.768C251.648 129.176 252.488 128.776 253.56 128.568L258.312 127.632V129.216L254.448 130.008C253.664 130.168 253.08 130.392 252.696 130.68C252.312 130.968 252.12 131.368 252.12 131.88C252.12 132.376 252.312 132.784 252.696 133.104C253.096 133.408 253.656 133.56 254.376 133.56C254.84 133.56 255.28 133.504 255.696 133.392C256.128 133.264 256.512 133.08 256.848 132.84C257.184 132.584 257.448 132.272 257.64 131.904C257.832 131.52 257.928 131.072 257.928 130.56V127.248ZM264.513 135V123H266.193L266.361 125.688L266.049 125.424C266.305 124.784 266.649 124.272 267.081 123.888C267.513 123.488 268.009 123.2 268.569 123.024C269.145 122.848 269.737 122.76 270.345 122.76C271.209 122.76 271.993 122.928 272.697 123.264C273.401 123.584 273.961 124.08 274.377 124.752C274.809 125.424 275.025 126.28 275.025 127.32V135H273.105V127.992C273.105 126.664 272.817 125.744 272.241 125.232C271.681 124.704 270.985 124.44 270.153 124.44C269.577 124.44 269.001 124.576 268.425 124.848C267.849 125.12 267.369 125.56 266.985 126.168C266.617 126.776 266.433 127.592 266.433 128.616V135H264.513ZM284.053 135.24C283.061 135.24 282.149 134.992 281.317 134.496C280.485 134 279.821 133.288 279.325 132.36C278.829 131.416 278.581 130.296 278.581 129C278.581 127.672 278.845 126.544 279.373 125.616C279.901 124.688 280.597 123.984 281.461 123.504C282.325 123.008 283.253 122.76 284.245 122.76C285.237 122.76 286.093 123.016 286.813 123.528C287.549 124.04 288.037 124.72 288.277 125.568L288.037 125.736V117.48H289.957V135H288.277L288.109 132.096L288.373 131.952C288.261 132.656 287.989 133.256 287.557 133.752C287.141 134.232 286.621 134.6 285.997 134.856C285.389 135.112 284.741 135.24 284.053 135.24ZM284.245 133.56C285.013 133.56 285.677 133.368 286.237 132.984C286.813 132.6 287.253 132.056 287.557 131.352C287.877 130.632 288.037 129.792 288.037 128.832C288.037 127.92 287.877 127.136 287.557 126.48C287.253 125.824 286.821 125.32 286.261 124.968C285.717 124.616 285.077 124.44 284.341 124.44C283.125 124.44 282.181 124.856 281.509 125.688C280.837 126.52 280.501 127.624 280.501 129C280.501 130.376 280.829 131.48 281.485 132.312C282.141 133.144 283.061 133.56 284.245 133.56ZM129.641 150.696C129.209 150.696 128.857 150.568 128.585 150.312C128.329 150.04 128.201 149.688 128.201 149.256C128.201 148.824 128.329 148.48 128.585 148.224C128.857 147.952 129.209 147.816 129.641 147.816C130.073 147.816 130.417 147.952 130.673 148.224C130.945 148.48 131.081 148.824 131.081 149.256C131.081 149.688 130.945 150.04 130.673 150.312C130.417 150.568 130.073 150.696 129.641 150.696ZM130.601 153V165H128.681V153H130.601ZM139.376 165.24C138.208 165.24 137.128 164.992 136.136 164.496C135.16 164 134.408 163.296 133.88 162.384L135.512 161.208C135.864 161.944 136.376 162.52 137.048 162.936C137.736 163.352 138.56 163.56 139.52 163.56C140.368 163.56 141.032 163.4 141.512 163.08C141.992 162.744 142.232 162.312 142.232 161.784C142.232 161.448 142.12 161.144 141.896 160.872C141.688 160.584 141.28 160.376 140.672 160.248L137.792 159.648C136.624 159.408 135.784 159.008 135.272 158.448C134.776 157.888 134.528 157.192 134.528 156.36C134.528 155.704 134.712 155.104 135.08 154.56C135.464 154.016 136 153.584 136.688 153.264C137.392 152.928 138.216 152.76 139.16 152.76C140.344 152.76 141.344 152.992 142.16 153.456C142.976 153.92 143.584 154.576 143.984 155.424L142.376 156.48C142.104 155.776 141.664 155.264 141.056 154.944C140.448 154.608 139.816 154.44 139.16 154.44C138.584 154.44 138.088 154.52 137.672 154.68C137.272 154.84 136.96 155.064 136.736 155.352C136.528 155.624 136.424 155.936 136.424 156.288C136.424 156.64 136.544 156.968 136.784 157.272C137.024 157.56 137.472 157.768 138.128 157.896L141.128 158.52C142.248 158.744 143.032 159.112 143.48 159.624C143.928 160.136 144.152 160.76 144.152 161.496C144.152 162.248 143.952 162.912 143.552 163.488C143.152 164.048 142.592 164.48 141.872 164.784C141.152 165.088 140.32 165.24 139.376 165.24ZM160.86 152.76C161.692 152.76 162.42 152.888 163.044 153.144C163.684 153.4 164.236 153.768 164.7 154.248C165.164 154.728 165.54 155.296 165.828 155.952L164.004 156.816C163.748 156.048 163.356 155.464 162.828 155.064C162.316 154.648 161.644 154.44 160.812 154.44C160.012 154.44 159.324 154.624 158.748 154.992C158.172 155.344 157.732 155.864 157.428 156.552C157.124 157.224 156.972 158.04 156.972 159C156.972 159.944 157.124 160.76 157.428 161.448C157.732 162.136 158.172 162.664 158.748 163.032C159.324 163.384 160.012 163.56 160.812 163.56C161.436 163.56 161.972 163.464 162.42 163.272C162.884 163.08 163.26 162.8 163.548 162.432C163.852 162.064 164.06 161.616 164.172 161.088L165.948 161.712C165.676 162.448 165.3 163.08 164.82 163.608C164.356 164.136 163.788 164.544 163.116 164.832C162.46 165.104 161.708 165.24 160.86 165.24C159.74 165.24 158.74 164.992 157.86 164.496C156.98 164 156.292 163.288 155.796 162.36C155.3 161.416 155.052 160.296 155.052 159C155.052 157.704 155.3 156.592 155.796 155.664C156.292 154.72 156.98 154 157.86 153.504C158.74 153.008 159.74 152.76 160.86 152.76ZM169.322 165V153H170.882L171.146 154.968C171.482 154.232 171.97 153.68 172.61 153.312C173.266 152.944 174.058 152.76 174.986 152.76C175.194 152.76 175.418 152.776 175.658 152.808C175.914 152.84 176.13 152.904 176.306 153L175.97 154.752C175.794 154.688 175.602 154.64 175.394 154.608C175.186 154.576 174.89 154.56 174.506 154.56C174.01 154.56 173.506 154.704 172.994 154.992C172.498 155.28 172.082 155.72 171.746 156.312C171.41 156.888 171.242 157.624 171.242 158.52V165H169.322ZM183.76 165.24C182.624 165.24 181.608 164.992 180.712 164.496C179.832 164 179.144 163.288 178.648 162.36C178.152 161.416 177.904 160.296 177.904 159C177.904 157.704 178.152 156.592 178.648 155.664C179.144 154.72 179.824 154 180.688 153.504C181.552 153.008 182.536 152.76 183.64 152.76C184.76 152.76 185.712 153 186.496 153.48C187.296 153.96 187.904 154.616 188.32 155.448C188.736 156.264 188.944 157.184 188.944 158.208C188.944 158.48 188.936 158.728 188.92 158.952C188.904 159.176 188.88 159.376 188.848 159.552H179.152V157.848H188.008L187.024 158.04C187.024 156.888 186.704 156 186.064 155.376C185.44 154.752 184.616 154.44 183.592 154.44C182.808 154.44 182.128 154.624 181.552 154.992C180.992 155.344 180.552 155.864 180.232 156.552C179.928 157.224 179.776 158.04 179.776 159C179.776 159.944 179.936 160.76 180.256 161.448C180.576 162.136 181.024 162.664 181.6 163.032C182.192 163.384 182.896 163.56 183.712 163.56C184.592 163.56 185.304 163.392 185.848 163.056C186.408 162.72 186.856 162.264 187.192 161.688L188.704 162.576C188.4 163.12 188.008 163.592 187.528 163.992C187.064 164.392 186.512 164.704 185.872 164.928C185.248 165.136 184.544 165.24 183.76 165.24ZM199.603 157.248C199.603 156.352 199.363 155.664 198.883 155.184C198.403 154.688 197.723 154.44 196.843 154.44C196.011 154.44 195.307 154.624 194.731 154.992C194.155 155.344 193.731 155.92 193.459 156.72L191.899 155.76C192.219 154.864 192.811 154.144 193.675 153.6C194.539 153.04 195.611 152.76 196.891 152.76C197.755 152.76 198.539 152.912 199.243 153.216C199.947 153.504 200.499 153.952 200.899 154.56C201.315 155.152 201.523 155.92 201.523 156.864V162.672C201.523 163.248 201.827 163.536 202.435 163.536C202.739 163.536 203.035 163.496 203.323 163.416L203.227 164.928C202.907 165.088 202.491 165.168 201.979 165.168C201.515 165.168 201.099 165.08 200.731 164.904C200.363 164.728 200.075 164.464 199.867 164.112C199.659 163.744 199.555 163.288 199.555 162.744V162.504L200.035 162.576C199.843 163.2 199.515 163.712 199.051 164.112C198.587 164.496 198.067 164.784 197.491 164.976C196.915 165.152 196.347 165.24 195.787 165.24C195.083 165.24 194.427 165.12 193.819 164.88C193.211 164.64 192.723 164.28 192.355 163.8C192.003 163.304 191.827 162.696 191.827 161.976C191.827 161.08 192.123 160.344 192.715 159.768C193.323 159.176 194.163 158.776 195.235 158.568L199.987 157.632V159.216L196.123 160.008C195.339 160.168 194.755 160.392 194.371 160.68C193.987 160.968 193.795 161.368 193.795 161.88C193.795 162.376 193.987 162.784 194.371 163.104C194.771 163.408 195.331 163.56 196.051 163.56C196.515 163.56 196.955 163.504 197.371 163.392C197.803 163.264 198.187 163.08 198.523 162.84C198.859 162.584 199.123 162.272 199.315 161.904C199.507 161.52 199.603 161.072 199.603 160.56V157.248ZM208.552 149.592V161.688C208.552 162.28 208.72 162.72 209.056 163.008C209.392 163.296 209.824 163.44 210.352 163.44C210.816 163.44 211.216 163.36 211.552 163.2C211.888 163.04 212.192 162.824 212.464 162.552L213.136 164.16C212.768 164.496 212.328 164.76 211.816 164.952C211.32 165.144 210.744 165.24 210.088 165.24C209.48 165.24 208.912 165.136 208.384 164.928C207.856 164.704 207.432 164.36 207.112 163.896C206.808 163.416 206.648 162.792 206.632 162.024V150.12L208.552 149.592ZM212.92 153V154.656H204.232V153H212.92ZM216.735 150.696C216.303 150.696 215.951 150.568 215.679 150.312C215.423 150.04 215.295 149.688 215.295 149.256C215.295 148.824 215.423 148.48 215.679 148.224C215.951 147.952 216.303 147.816 216.735 147.816C217.167 147.816 217.511 147.952 217.767 148.224C218.039 148.48 218.175 148.824 218.175 149.256C218.175 149.688 218.039 150.04 217.767 150.312C217.511 150.568 217.167 150.696 216.735 150.696ZM217.695 153V165H215.775V153H217.695ZM222.15 165V153H223.83L223.998 155.688L223.686 155.424C223.942 154.784 224.286 154.272 224.718 153.888C225.15 153.488 225.646 153.2 226.206 153.024C226.782 152.848 227.374 152.76 227.982 152.76C228.846 152.76 229.63 152.928 230.334 153.264C231.038 153.584 231.598 154.08 232.014 154.752C232.446 155.424 232.662 156.28 232.662 157.32V165H230.742V157.992C230.742 156.664 230.454 155.744 229.878 155.232C229.318 154.704 228.622 154.44 227.79 154.44C227.214 154.44 226.638 154.576 226.062 154.848C225.486 155.12 225.006 155.56 224.622 156.168C224.254 156.776 224.07 157.592 224.07 158.616V165H222.15ZM247.113 150.792L247.545 152.496C247.529 152.496 247.505 152.496 247.473 152.496C247.441 152.496 247.409 152.496 247.377 152.496C246.593 152.496 245.985 152.656 245.553 152.976C245.137 153.28 244.929 153.776 244.929 154.464L243.753 153.864C243.753 153.24 243.897 152.696 244.185 152.232C244.473 151.768 244.865 151.416 245.361 151.176C245.857 150.92 246.401 150.792 246.993 150.792C247.009 150.792 247.025 150.792 247.041 150.792C247.073 150.792 247.097 150.792 247.113 150.792ZM243.465 163.464C244.601 163.464 245.489 163.728 246.129 164.256C246.769 164.768 247.089 165.456 247.089 166.32C247.089 167.104 246.825 167.784 246.297 168.36C245.785 168.936 245.089 169.376 244.209 169.68C243.345 170 242.369 170.16 241.281 170.16C239.393 170.16 237.977 169.84 237.033 169.2C236.105 168.56 235.641 167.792 235.641 166.896C235.641 166.256 235.849 165.68 236.265 165.168C236.697 164.672 237.417 164.392 238.425 164.328L238.257 164.688C237.713 164.544 237.249 164.304 236.865 163.968C236.497 163.616 236.313 163.112 236.313 162.456C236.313 161.8 236.553 161.24 237.033 160.776C237.529 160.296 238.257 160 239.217 159.888L240.489 160.536H240.249C239.465 160.616 238.905 160.816 238.569 161.136C238.249 161.44 238.089 161.776 238.089 162.144C238.089 162.592 238.249 162.928 238.569 163.152C238.905 163.36 239.369 163.464 239.961 163.464H243.465ZM241.257 168.552C242.185 168.552 242.945 168.456 243.537 168.264C244.145 168.072 244.593 167.824 244.881 167.52C245.169 167.216 245.313 166.888 245.313 166.536C245.313 166.104 245.137 165.76 244.785 165.504C244.449 165.248 243.833 165.12 242.937 165.12H239.241C238.729 165.12 238.297 165.248 237.945 165.504C237.593 165.776 237.417 166.144 237.417 166.608C237.417 167.2 237.753 167.672 238.425 168.024C239.113 168.376 240.057 168.552 241.257 168.552ZM241.089 152.76C242.049 152.76 242.897 152.936 243.633 153.288C244.385 153.624 244.969 154.096 245.385 154.704C245.801 155.312 246.009 156.016 246.009 156.816C246.009 157.6 245.801 158.304 245.385 158.928C244.969 159.536 244.385 160.016 243.633 160.368C242.897 160.704 242.049 160.872 241.089 160.872C239.505 160.872 238.289 160.496 237.441 159.744C236.593 158.976 236.169 158 236.169 156.816C236.169 156.016 236.377 155.312 236.793 154.704C237.225 154.096 237.809 153.624 238.545 153.288C239.281 152.936 240.129 152.76 241.089 152.76ZM241.089 154.32C240.257 154.32 239.561 154.552 239.001 155.016C238.441 155.464 238.161 156.064 238.161 156.816C238.161 157.552 238.441 158.152 239.001 158.616C239.561 159.08 240.257 159.312 241.089 159.312C241.921 159.312 242.617 159.08 243.177 158.616C243.737 158.152 244.017 157.552 244.017 156.816C244.017 156.064 243.737 155.464 243.177 155.016C242.617 154.552 241.921 154.32 241.089 154.32Z" fill="#EFB840"/>
<defs>
<filter id="filter0_d_319_760" x="2" y="20" width="371" height="262.001" filterUnits="userSpaceOnUse" color-interpolation-filters="sRGB">
<feFlood flood-opacity="0" result="BackgroundImageFix"/>
<feColorMatrix in="SourceAlpha" type="matrix" values="0 0 0 0 0 0 0 0 0 0 0 0 0 0 0 0 0 0 127 0" result="hardAlpha"/>
<feOffset dy="4"/>
<feGaussianBlur stdDeviation="12"/>
<feComposite in2="hardAlpha" operator="out"/>
<feColorMatrix type="matrix" values="0 0 0 0 0 0 0 0 0 0.00784314 0 0 0 0 0.270588 0 0 0 0.15 0"/>
<feBlend mode="normal" in2="BackgroundImageFix" result="effect1_dropShadow_319_760"/>
<feBlend mode="normal" in="SourceGraphic" in2="effect1_dropShadow_319_760" result="shape"/>
</filter>
<filter id="filter1_f_319_760" x="299" y="9" width="80.2149" height="80.2149" filterUnits="userSpaceOnUse" color-interpolation-filters="sRGB">
<feFlood flood-opacity="0" result="BackgroundImageFix"/>
<feBlend mode="normal" in="SourceGraphic" in2="BackgroundImageFix" result="shape"/>
<feGaussianBlur stdDeviation="7.5" result="effect1_foregroundBlur_319_760"/>
</filter>
<filter id="filter2_i_319_760" x="332.031" y="42.3318" width="16.0477" height="11.8619" filterUnits="userSpaceOnUse" color-interpolation-filters="sRGB">
<feFlood flood-opacity="0" result="BackgroundImageFix"/>
<feBlend mode="normal" in="SourceGraphic" in2="BackgroundImageFix" result="shape"/>
<feColorMatrix in="SourceAlpha" type="matrix" values="0 0 0 0 0 0 0 0 0 0 0 0 0 0 0 0 0 0 127 0" result="hardAlpha"/>
<feOffset/>
<feGaussianBlur stdDeviation="1.5"/>
<feComposite in2="hardAlpha" operator="arithmetic" k2="-1" k3="1"/>
<feColorMatrix type="matrix" values="0 0 0 0 0 0 0 0 0 0 0 0 0 0 0 0 0 0 0.25 0"/>
<feBlend mode="normal" in2="shape" result="effect1_innerShadow_319_760"/>
</filter>
<linearGradient id="paint0_linear_319_760" x1="20.4524" y1="53.8415" x2="343.806" y2="249.93" gradientUnits="userSpaceOnUse">
<stop stop-color="#F6F7F9"/>
<stop offset="1" stop-color="#F0F0F6"/>
<stop offset="1" stop-color="white"/>
</linearGradient>
</defs>
</svg>
