<?xml version="1.0" encoding="utf-8"?>

<!-- Uploaded to: SVG Repo, www.svgrepo.com, Generator: SVG Repo Mixer Tools -->
<svg
    version="1.1"
    id="Icons"
    xmlns="http://www.w3.org/2000/svg"
    xmlns:xlink="http://www.w3.org/1999/xlink"
    viewBox="0 0 34 34"
    xml:space="preserve"
>
    <style type="text/css">
        .st0 {
            fill: #ffffff;
        }
        .st1 {
            fill: #3a559f;
        }
        .st2 {
            fill: #f4f4f4;
        }
        .st3 {
            fill: #ff0084;
        }
        .st4 {
            fill: #0063db;
        }
        .st5 {
            fill: #00aced;
        }
        .st6 {
            fill: #ffec06;
        }
        .st7 {
            fill: #ff0000;
        }
        .st8 {
            fill: #25d366;
        }
        .st9 {
            fill: #0088ff;
        }
        .st10 {
            fill: #314358;
        }
        .st11 {
            fill: #ee6996;
        }
        .st12 {
            fill: #01aef3;
        }
        .st13 {
            fill: #fffeff;
        }
        .st14 {
            fill: #f06a35;
        }
        .st15 {
            fill: #00adef;
        }
        .st16 {
            fill: #1769ff;
        }
        .st17 {
            fill: #1ab7ea;
        }
        .st18 {
            fill: #6001d1;
        }
        .st19 {
            fill: #e41214;
        }
        .st20 {
            fill: #05ce78;
        }
        .st21 {
            fill: #7b519c;
        }
        .st22 {
            fill: #ff4500;
        }
        .st23 {
            fill: #00f076;
        }
        .st24 {
            fill: #ffc900;
        }
        .st25 {
            fill: #00d6ff;
        }
        .st26 {
            fill: #ff3a44;
        }
        .st27 {
            fill: #ff6a36;
        }
        .st28 {
            fill: #0061fe;
        }
        .st29 {
            fill: #f7981c;
        }
        .st30 {
            fill: #ee1b22;
        }
        .st31 {
            fill: #ef3561;
        }
        .st32 {
            fill: none;
            stroke: #ffffff;
            stroke-width: 2;
            stroke-miterlimit: 10;
        }
        .st33 {
            fill: #0097d3;
        }
        .st34 {
            fill: #01308a;
        }
        .st35 {
            fill: #019cde;
        }
        .st36 {
            fill: #ffd049;
        }
        .st37 {
            fill: #16a05d;
        }
        .st38 {
            fill: #4486f4;
        }
        .st39 {
            fill: none;
        }
        .st40 {
            fill: #34a853;
        }
        .st41 {
            fill: #4285f4;
        }
        .st42 {
            fill: #fbbc05;
        }
        .st43 {
            fill: #ea4335;
        }
    </style>
    <path
        class="st1"
        d="M23,0H9C4,0,0,4,0,9v14c0,5,4,9,9,9h14c5,0,9-4,9-9V9C32,4,28,0,23,0z"
    />
    <path
        class="st0"
        d="M26.8,15.4C26.6,15.2,26.3,15,26,15h-5v-3.8c0-0.1,0.1-0.2,0.2-0.2H25c0.6,0,1-0.4,1-1V7c0-0.6-0.4-1-1-1h-4
	c-3.3,0-5,2.7-5,6v3h-4c-0.6,0-1,0.4-1,1v3c0,0.6,0.4,1,1,1h4v12h5V20h3c0.4,0,0.8-0.2,0.9-0.6l2-3C27.1,16.1,27,15.7,26.8,15.4z"
    />
</svg>
